<svg width="346" height="97" viewBox="0 0 346 97" fill="none" xmlns="http://www.w3.org/2000/svg">
<g clip-path="url(#clip0_4132_1486)">
<g clip-path="url(#clip1_4132_1486)">
<g opacity="0.2">
<path d="M346.406 42.2854C286.237 0.347546 221.784 43.192 173.011 72.1135C126.646 99.607 55.043 112.229 17.3838 67.6886C17.1636 67.3926 17.3604 67.0685 17.7306 67.1906C74.962 109.105 137.788 74.6453 190.203 44.526C242.458 14.5006 310.209 -2.08098 346.884 41.8203C347.132 42.121 346.725 42.5155 346.406 42.2807" fill="#5594B9"/>
</g>
<path d="M249.21 65.3493H231.868V32.5525H248.273C252.481 32.5525 255.728 33.3369 257.935 34.8777C260.156 36.4325 261.28 38.5557 261.28 41.1956C261.28 42.7645 260.887 44.1878 260.109 45.4279C259.383 46.5834 258.361 47.5276 257.073 48.2322C258.825 48.8898 260.231 49.8951 261.252 51.215C262.33 52.6148 262.878 54.3246 262.878 56.2928C262.878 59.177 261.688 61.4364 259.341 63.0053C257.012 64.5601 253.605 65.354 249.215 65.354L249.21 65.3493ZM241.624 58.4254H248.456C251.647 58.4254 253.202 57.392 253.202 55.2688C253.202 53.1456 251.651 52.1122 248.456 52.1122H241.624V58.4301V58.4254ZM241.624 45.4655H247.322C250.283 45.4655 251.604 44.5354 251.604 42.4451C251.604 40.3548 250.283 39.4717 247.322 39.4717H241.624V45.4608V45.4655Z" fill="#20446D"/>
<path d="M273.778 65.7721C271.721 65.7721 269.917 65.4198 268.413 64.7246C266.899 64.0294 265.742 63.0711 264.968 61.8827C264.205 60.7083 263.802 59.2569 263.802 57.6833C263.802 55.2453 264.926 53.0611 266.894 51.6988C268.797 50.3789 271.988 49.679 276.116 49.679H281.069C280.862 47.1988 279.269 45.9399 276.069 45.9399C273.581 45.9399 271.632 46.419 269.289 47.9645L269.167 48.0443L265.803 41.9801L265.929 41.9096C269.537 39.9085 272.953 39.1006 276.683 39.1006C281.092 39.1006 284.508 40.1857 286.832 42.1304C289.161 44.0704 290.342 47.0861 290.342 51.0835V65.3493H281.72V62.4323C280.296 64.6212 277.568 65.7721 273.787 65.7721H273.778ZM277.222 54.6018C274.682 54.6018 273.037 55.7057 273.037 57.4155C273.037 58.1577 273.323 58.7355 273.909 59.1817C274.457 59.5998 275.502 59.8581 276.636 59.8581C277.676 59.8581 278.604 59.6139 279.386 59.1253C280.16 58.6509 280.727 57.9369 281.073 57.0162V54.6018H277.217H277.222Z" fill="#20446D"/>
<path d="M297.848 73.767C296.447 73.767 295.013 73.5509 293.598 73.1282C292.179 72.7007 291.007 72.1323 290.117 71.4371L290.028 71.3667L293.05 65.1145L293.186 65.2366C294.296 66.2184 296.175 66.7163 297.858 66.4767C298.963 66.317 299.816 65.8661 300.266 65.1991L289.086 39.6033H298.888L298.926 39.6878L305.275 54.9166L311.709 39.6033H320.827L309.492 65.9553C308.072 69.2951 306.746 70.6433 304.942 71.8364C303.012 73.1141 300.627 73.7623 297.853 73.7623L297.848 73.767Z" fill="#20446D"/>
<path d="M42.0264 65.3493H32.7814V65.2084L32.6877 48.3121L25.214 61.1264H19.6099L19.5677 61.0606L12.183 48.7771V65.354H2.88184V33.0692H13.7387L22.5478 47.9739L31.0758 33.0692H41.9327V33.2101L42.0311 65.3587L42.0264 65.3493Z" fill="#20446D"/>
<path d="M102.838 65.3493H93.4851V52.1169C93.4851 48.7066 92.1403 47.0485 89.3757 47.0485C87.8622 47.0485 86.6346 47.537 85.7302 48.5046C84.8212 49.477 84.362 50.9567 84.362 52.9154V65.3493H75.0093V39.6361H83.9309V42.2102C84.9102 41.2801 86.0629 40.5521 87.3702 40.04C88.7806 39.4905 90.341 39.2086 92.0044 39.2086C95.2422 39.2086 97.885 40.1669 99.8577 42.0646C101.835 43.9623 102.838 46.8512 102.838 50.6607V65.3493Z" fill="#20446D"/>
<path d="M114.739 40.5755H121.182V47.5182H114.739V55.8231C114.739 56.6874 114.974 57.3732 115.442 57.8617C115.925 58.369 116.529 58.6039 117.307 58.5851C118.324 58.5616 119.224 58.2798 119.983 57.749L120.128 57.6457L122.616 64.1092L122.522 64.1703C121.763 64.6635 120.817 65.0534 119.711 65.3305C118.586 65.6123 117.279 65.7673 116.033 65.7673C112.64 65.7673 109.988 64.9359 108.156 63.2919C106.319 61.6431 105.387 59.1629 105.387 55.9123V34.2341H114.739V40.5708V40.5755Z" fill="#20446D"/>
<path d="M137.372 65.7674C134.396 65.7674 131.749 65.1943 129.495 64.0622C127.236 62.9302 125.46 61.3331 124.219 59.3179C122.977 57.3028 122.349 54.9917 122.349 52.441C122.349 49.8904 122.963 47.6356 124.172 45.6346C125.381 43.6335 127.077 42.0458 129.209 40.9138C131.341 39.7817 133.773 39.2086 136.434 39.2086C139.096 39.2086 141.308 39.7441 143.379 40.7963C145.45 41.8532 147.118 43.3986 148.327 45.3997C149.536 47.4008 150.15 49.8011 150.15 52.535C150.15 52.5584 150.15 52.6383 150.009 54.7521L150 54.8836H131.617C131.997 56.0721 132.691 57.0021 133.684 57.6551C134.733 58.3409 136.069 58.6885 137.657 58.6885C138.852 58.6885 139.897 58.5194 140.764 58.1812C141.631 57.8477 142.521 57.284 143.416 56.5136L143.515 56.4291L148.374 61.4975L148.289 61.5961C145.806 64.3676 142.137 65.7721 137.376 65.7721L137.372 65.7674ZM131.458 49.9092H141.509C141.251 48.6784 140.684 47.692 139.836 46.9639C138.946 46.2077 137.817 45.8225 136.486 45.8225C135.155 45.8225 134.026 46.2077 133.136 46.9639C132.283 47.6873 131.721 48.6784 131.458 49.9092Z" fill="#20446D"/>
<path d="M161.297 65.3494H151.944V39.6361H160.865V42.4404C161.765 41.4164 162.913 40.6226 164.281 40.0918C165.771 39.5093 167.5 39.2134 169.417 39.2134H169.557V47.5324L169.403 47.5136C168.583 47.4196 167.899 47.3727 167.365 47.3727C165.467 47.3727 163.967 47.88 162.899 48.8852C161.835 49.8857 161.297 51.4452 161.297 53.5215V65.3447V65.3494Z" fill="#20446D"/>
<path d="M184.739 65.7674C181.768 65.7674 179.116 65.1943 176.863 64.0622C174.604 62.9302 172.828 61.3331 171.586 59.3179C170.345 57.3028 169.717 54.9917 169.717 52.441C169.717 49.8904 170.331 47.6356 171.54 45.6346C172.748 43.6335 174.445 42.0458 176.577 40.9138C178.709 39.7817 181.136 39.2086 183.802 39.2086C186.468 39.2086 188.675 39.7441 190.746 40.7963C192.822 41.8532 194.486 43.3986 195.694 45.3997C196.903 47.4008 197.517 49.8011 197.517 52.535C197.517 52.6242 197.442 53.7892 197.377 54.7521L197.367 54.8836H178.99C179.369 56.0721 180.063 57.0068 181.056 57.6551C182.106 58.3409 183.441 58.6885 185.03 58.6885C186.225 58.6885 187.27 58.5194 188.136 58.1812C189.003 57.8477 189.894 57.284 190.788 56.5136L190.887 56.4291L195.746 61.4975L195.657 61.5961C193.178 64.3676 189.505 65.7721 184.744 65.7721L184.739 65.7674ZM178.826 49.9092H188.872C188.614 48.6784 188.047 47.6873 187.199 46.9639C186.309 46.2077 185.18 45.8225 183.849 45.8225C182.518 45.8225 181.389 46.2077 180.499 46.9639C179.646 47.6873 179.084 48.6784 178.826 49.9092Z" fill="#20446D"/>
<path d="M43.9753 52.239C43.9753 52.3518 43.9565 52.4551 43.9565 52.5679C43.9565 55.1561 44.5751 57.4625 45.8168 59.4917C47.0585 61.521 48.7875 63.0993 51.0132 64.236C53.239 65.3681 55.7505 65.9365 58.5479 65.9365C61.3453 65.9365 63.8474 65.3681 66.0591 64.236C68.2708 63.104 69.9998 61.5116 71.2556 59.4682C72.0849 58.1154 72.6144 56.6405 72.8956 55.0668C69.2501 56.9928 65.1688 56.2224 63.0181 55.3628C62.7978 55.8654 62.5214 56.3304 62.1606 56.7203C61.2234 57.7208 60.0192 58.2235 58.5526 58.2235C57.0859 58.2235 55.8864 57.7208 54.9446 56.7203C54.0074 55.7198 53.5388 54.3341 53.5388 52.5632C53.5388 52.0699 53.581 51.6143 53.6513 51.1821C50.4603 50.4024 47.2506 50.4775 43.9847 52.2343" fill="#20446D"/>
<path d="M73.1022 53.0705C73.1069 52.9014 73.135 52.7417 73.135 52.5679C73.135 49.9797 72.5071 47.6639 71.2513 45.6206C69.9956 43.5772 68.2572 41.9801 66.0315 40.8293C63.8057 39.6784 61.3129 39.1053 58.5437 39.1053C55.7744 39.1053 53.2347 39.6784 51.009 40.8293C48.7833 41.9801 47.0496 43.5772 45.8126 45.6206C44.9551 47.0298 44.4162 48.5799 44.1538 50.2474C47.5463 48.4812 50.8825 48.5235 54.2047 49.4348C54.4062 49.0355 54.6405 48.6644 54.9357 48.3403C55.8728 47.321 57.077 46.8137 58.5437 46.8137C60.0103 46.8137 61.2145 47.321 62.1517 48.3403C63.0888 49.3596 63.5574 50.7641 63.5574 52.5632C63.5574 52.9484 63.5246 53.3007 63.4824 53.6483C65.7737 54.4421 69.6582 54.9964 73.1022 53.0658" fill="#5594B9"/>
<path d="M203.922 73.767C202.521 73.767 201.088 73.5509 199.673 73.1282C198.248 72.7007 197.081 72.1323 196.191 71.4371L196.102 71.3667L199.124 65.1145L199.26 65.2366C200.371 66.2184 202.25 66.7163 203.932 66.4767C205.038 66.317 205.89 65.8661 206.34 65.1991L195.16 39.6033H204.963L205 39.6878L211.349 54.9166L217.783 39.6033H226.901L215.566 65.9553C214.147 69.2951 212.821 70.6433 211.017 71.8364C209.086 73.1141 206.701 73.7623 203.927 73.7623L203.922 73.767Z" fill="#20446D"/>
<path d="M14.3852 28.7618C11.6956 28.7618 9.22619 28.1653 7.04733 26.991C4.86378 25.8119 3.12538 24.1632 1.87898 22.0869C0.632573 20.0107 0 17.662 0 15.102C0 12.5419 0.632573 10.1933 1.87898 8.11705C3.12069 6.04083 4.8591 4.39207 7.04733 3.21303C9.22619 2.0387 11.6956 1.44214 14.3852 1.44214C16.2829 1.44214 18.0916 1.74747 19.755 2.34872C21.4184 2.94998 22.871 3.85187 24.0659 5.0309L24.3095 5.27047L23.0397 6.55754L22.796 6.32737C20.6125 4.29342 17.7964 3.26001 14.4273 3.26001C12.1079 3.26001 9.97122 3.78611 8.08287 4.81952C6.19453 5.85294 4.69041 7.29032 3.61269 9.0894C2.53029 10.8885 1.98675 12.9083 1.98675 15.0973C1.98675 17.2863 2.53498 19.3108 3.61269 21.1052C4.6951 22.9043 6.19921 24.3417 8.08287 25.3751C9.97122 26.4085 12.1079 26.9346 14.4273 26.9346C17.773 26.9346 20.5891 25.8918 22.796 23.8343L23.0397 23.6042L24.3095 24.8912L24.0659 25.1308C22.8757 26.3051 21.4325 27.2164 19.7784 27.8318C18.1244 28.4471 16.311 28.7572 14.3899 28.7572L14.3852 28.7618Z" fill="#5594B9"/>
<path d="M47.9211 28.6068H46.0796V0H47.9211V28.6068Z" fill="#5594B9"/>
<path d="M33.4047 28.7712C31.0478 28.7712 29.1688 28.2357 27.81 27.1741C26.4277 26.0937 25.7295 24.6469 25.7295 22.8667C25.7295 21.0864 26.3855 19.649 27.6225 18.6015C28.9252 17.4976 30.9634 16.9104 33.5219 16.9104H40.6629V15.4918C40.6629 13.6317 40.1568 12.2084 39.1635 11.2595C38.1935 10.3342 36.5207 9.82215 34.4637 9.82215C30.8744 9.82215 28.6768 11.6917 28.0911 12.2695L27.81 12.5419L26.7135 11.0904L26.9384 10.8791C27.4445 10.3999 30.195 8.02307 34.5012 8.02307C37.0877 8.02307 39.2384 8.70419 40.5598 9.94428C41.928 11.2267 42.6168 13.0915 42.6168 15.4918V28.6585H40.7004V25.5019C40.0631 26.3709 39.2384 27.0896 38.2451 27.6392C36.9003 28.3907 35.2696 28.7712 33.4047 28.7712ZM33.5219 18.5921C31.5866 18.5921 30.0404 19.0054 29.0423 19.7899C28.1661 20.4804 27.6881 21.542 27.6881 22.7868C27.6881 24.0974 28.1942 25.1402 29.1969 25.887C30.2278 26.6527 31.671 27.0426 33.4844 27.0426C36.9752 27.0426 39.3837 25.5347 40.6488 22.5566L40.6629 18.5874H33.5265L33.5219 18.5921Z" fill="#5594B9"/>
<path d="M66.4108 28.8088C64.2554 28.8088 62.1983 28.4142 60.4599 27.6673C58.7824 26.9486 57.4376 26.0326 56.4724 24.9476L56.2568 24.7033L57.5314 23.435L57.775 23.6934C58.6231 24.6 59.7571 25.375 61.1534 25.9904C62.6482 26.6527 64.4475 27.0003 66.3639 27.0003C69.0442 27.0003 71.0778 26.4883 72.4132 25.4784C73.8002 24.4309 74.4937 23.1391 74.4843 21.6453C74.4749 20.4334 74.0766 19.3249 73.3878 18.6062C72.6803 17.8687 71.7994 17.305 70.7685 16.9292C69.7049 16.5393 68.2242 16.126 66.3733 15.6985C64.4147 15.2241 62.7419 14.8201 61.5002 14.3504C60.2397 13.8759 59.1526 13.1385 58.2717 12.1614C57.4095 11.2079 56.9738 10.0241 56.8894 8.43642C56.88 7.16814 57.194 6.13943 57.939 4.98388C58.6466 3.8894 59.743 3.00161 61.2003 2.35807C62.7841 1.65347 64.6724 1.29647 66.6591 1.32935C68.2195 1.35754 69.48 1.56892 71.1434 2.08093C72.5304 2.51308 73.8283 3.23177 75.0138 4.22761L75.2481 4.4249L74.2453 5.96562L73.9501 5.72606C72.7646 4.7772 71.6166 4.13836 70.4405 3.77667C68.9177 3.32572 67.929 3.15662 66.6732 3.13313C64.2038 3.07676 62.1655 3.64044 60.7598 4.74901C59.3869 5.8341 58.834 6.8957 58.8434 8.41763C58.8902 9.49802 59.237 10.367 59.9023 11.0481C60.6239 11.7903 61.5189 12.3587 62.5638 12.7486C63.5947 13.1338 64.9629 13.4532 66.6966 13.8618L66.9356 13.9182C68.9411 14.402 70.5764 14.8765 71.8041 15.3274C73.0645 15.7925 74.1469 16.5158 75.0138 17.4835C75.9134 18.484 76.4383 19.9825 76.4523 21.5984C76.4617 22.8244 76.0728 24.041 75.2996 25.22C74.5827 26.3098 73.4019 27.2258 71.8931 27.8646C70.4124 28.4894 68.5662 28.8088 66.4014 28.8088H66.4108Z" fill="#5594B9"/>
<path d="M84.2821 28.7712C82.3562 28.7712 80.749 28.2592 79.7604 27.3244C78.7342 26.3567 78.2188 25.0227 78.2188 23.3598V4.2229H80.1727V9.22087H87.6371V10.9824H80.1727V23.1673C80.1727 24.3886 80.5241 25.3515 81.2129 26.0326C81.8314 26.6433 83.0263 27.0097 84.4086 27.0097C85.7112 27.0097 86.8171 26.6386 87.6933 25.9105L87.9697 25.685L89.0756 27.1177L88.8272 27.3291C88.2977 27.7847 87.6136 28.1417 86.803 28.3954C85.9971 28.6444 85.1489 28.7712 84.2821 28.7712Z" fill="#5594B9"/>
<path d="M114.899 28.7712C112.973 28.7712 111.366 28.2592 110.377 27.3244C109.351 26.3567 108.831 25.0227 108.831 23.3598V4.2229H110.785V9.22087H118.249V10.9824H110.785V23.1673C110.785 24.3886 111.136 25.3515 111.825 26.0326C112.443 26.6433 113.638 27.0097 115.02 27.0097C116.323 27.0097 117.429 26.6386 118.31 25.9105L118.582 25.685L119.687 27.1177L119.439 27.3291C118.91 27.7847 118.225 28.1464 117.415 28.3954C116.609 28.6444 115.761 28.7712 114.894 28.7712H114.899Z" fill="#5594B9"/>
<path d="M128.703 28.7712C126.651 28.7712 124.8 28.325 123.188 27.4513C121.571 26.5729 120.287 25.3281 119.364 23.7591C118.441 22.1855 117.973 20.3818 117.973 18.3995C117.973 16.4172 118.404 14.6181 119.257 13.0445C120.109 11.4709 121.318 10.2261 122.841 9.34772C124.359 8.46932 126.079 8.02307 127.949 8.02307C129.818 8.02307 131.491 8.45992 132.995 9.32893C134.504 10.1979 135.708 11.4192 136.58 12.9694C137.447 14.5195 137.887 16.2951 137.887 18.2492V18.9209H119.903C119.973 20.4053 120.367 21.7534 121.075 22.9371C121.829 24.2054 122.883 25.2059 124.209 25.9105C125.535 26.6198 127.049 26.9815 128.703 26.9815C130.052 26.9815 131.313 26.7373 132.452 26.2628C133.576 25.7931 134.513 25.0932 135.235 24.1772L135.474 23.8719L136.781 25.1918L136.566 25.4314C135.614 26.5024 134.448 27.3385 133.098 27.9116C131.749 28.4847 130.268 28.7759 128.698 28.7759L128.703 28.7712ZM119.959 17.2299H135.98C135.839 15.8958 135.436 14.6698 134.771 13.58C134.054 12.401 133.093 11.4662 131.927 10.8133C130.755 10.1557 129.42 9.82215 127.953 9.82215C126.487 9.82215 125.142 10.1557 123.961 10.8133C122.78 11.4709 121.82 12.401 121.117 13.58C120.465 14.6698 120.077 15.8958 119.959 17.2299Z" fill="#5594B9"/>
<path d="M97.2616 28.7712C94.9047 28.7712 93.0257 28.2357 91.6669 27.1741C90.2846 26.0937 89.5864 24.6469 89.5864 22.8667C89.5864 21.0864 90.2424 19.649 91.4795 18.6015C92.7821 17.4976 94.8204 16.9104 97.3788 16.9104H104.52V15.4918C104.52 13.6317 104.014 12.2084 103.02 11.2595C102.05 10.3342 100.378 9.82215 98.3206 9.82215C94.7267 9.82215 92.5337 11.6917 91.948 12.2695L91.6669 12.5419L90.5704 11.0904L90.7953 10.8791C91.3014 10.3999 94.0519 8.02307 98.3581 8.02307C100.945 8.02307 103.095 8.70419 104.417 9.94428C105.785 11.2267 106.474 13.0915 106.474 15.4918V28.6585H104.557V25.5019C103.92 26.3709 103.095 27.0896 102.102 27.6392C100.757 28.3907 99.1266 28.7712 97.2616 28.7712ZM97.3835 18.5921C95.4483 18.5921 93.902 19.0054 92.9039 19.7899C92.0277 20.4804 91.5497 21.542 91.5497 22.7868C91.5497 24.0974 92.0558 25.1402 93.0586 25.887C94.0894 26.6527 95.5326 27.0426 97.346 27.0426C100.837 27.0426 103.245 25.5347 104.51 22.5566L104.52 18.5874H97.3835V18.5921Z" fill="#5594B9"/>
</g>
</g>
<defs>
<clipPath id="clip0_4132_1486">
<rect width="346" height="97" fill="white"/>
</clipPath>
<clipPath id="clip1_4132_1486">
<rect width="346.964" height="97" fill="white"/>
</clipPath>
</defs>
</svg>
